<svg xmlns="http://www.w3.org/2000/svg" xmlns:xlink="http://www.w3.org/1999/xlink" width="500" zoomAndPan="magnify" viewBox="0 0 375 374.999991" height="150" preserveAspectRatio="xMidYMid meet" version="1.0"><defs><g/><clipPath id="c008a768e2"><path d="M 0 14.722656 L 90 14.722656 L 90 104.722656 L 0 104.722656 Z M 0 14.722656 " clip-rule="nonzero"/></clipPath><clipPath id="75cd9885ef"><path d="M 94.113281 52.648438 L 375 52.648438 L 375 90.320312 L 94.113281 90.320312 Z M 94.113281 52.648438 " clip-rule="nonzero"/></clipPath><clipPath id="500abee130"><path d="M 96.363281 52.648438 L 372.75 52.648438 C 373.992188 52.648438 375 53.65625 375 54.898438 L 375 88.070312 C 375 89.316406 373.992188 90.320312 372.75 90.320312 L 96.363281 90.320312 C 95.121094 90.320312 94.113281 89.316406 94.113281 88.070312 L 94.113281 54.898438 C 94.113281 53.65625 95.121094 52.648438 96.363281 52.648438 Z M 96.363281 52.648438 " clip-rule="nonzero"/></clipPath></defs><g clip-path="url(#c008a768e2)"><path fill="#ff3b00" d="M -0.015625 59.546875 C -0.015625 34.605469 20.203125 14.390625 45.144531 14.390625 C 64.175781 14.390625 80.460938 26.167969 87.105469 42.832031 L 72.875 43.492188 L 72.847656 43.492188 C 70.035156 43.457031 67.816406 42.265625 66.703125 39.632812 L 66.566406 39.292969 L 66.550781 39.253906 L 66.539062 39.21875 C 65.753906 37.277344 64.695312 35.695312 62.863281 34.621094 C 60.578125 33.273438 57.535156 33.015625 54.949219 33.015625 C 49.972656 33.015625 44.097656 34.480469 39.792969 37.007812 C 36.738281 38.804688 33.644531 41.636719 33.644531 45.464844 C 33.644531 49.289062 36.738281 52.121094 39.792969 53.917969 C 44.097656 56.445312 49.972656 57.910156 54.949219 57.910156 C 57.539062 57.910156 60.582031 57.652344 62.863281 56.304688 C 64.707031 55.21875 65.765625 53.617188 66.554688 51.667969 C 66.574219 51.613281 66.597656 51.558594 66.621094 51.503906 L 66.621094 51.488281 L 66.691406 51.320312 C 67.804688 48.675781 69.996094 47.472656 72.847656 47.433594 L 72.875 47.433594 L 88.859375 48.175781 C 89.800781 51.808594 90.304688 55.621094 90.304688 59.546875 C 90.304688 63.613281 89.761719 67.554688 88.757812 71.304688 L 73.792969 71.996094 L 73.757812 71.996094 C 70.875 71.960938 68.601562 70.730469 67.457031 68.027344 L 67.320312 67.683594 L 67.320312 67.671875 L 67.3125 67.660156 L 67.296875 67.621094 C 66.527344 65.714844 65.488281 64.160156 63.691406 63.101562 C 61.4375 61.777344 58.417969 61.523438 55.863281 61.523438 C 55.613281 61.523438 55.367188 61.53125 55.117188 61.546875 C 54.976562 61.554688 54.832031 61.566406 54.695312 61.585938 L 54.484375 61.609375 L 54.34375 61.570312 L 35.242188 63.210938 L 35.246094 64.929688 L 55.433594 65.078125 L 55.71875 67.9375 L 32.898438 69.636719 L 33.011719 71.5 L 55.996094 71.867188 L 56.039062 72.882812 C 56.050781 73.09375 56.050781 73.304688 56.050781 73.515625 C 56.050781 73.726562 56.050781 73.941406 56.039062 74.152344 L 55.996094 75.160156 L 33.011719 75.675781 L 32.902344 77.539062 L 55.71875 79.089844 L 55.4375 81.953125 L 35.246094 82.097656 L 35.246094 83.824219 L 54.351562 86.042969 L 54.488281 86.007812 L 54.691406 86.03125 C 54.832031 86.046875 54.976562 86.058594 55.117188 86.066406 C 55.367188 86.082031 55.613281 86.09375 55.863281 86.09375 C 58.417969 86.09375 61.4375 85.839844 63.691406 84.511719 C 65.503906 83.445312 66.542969 81.871094 67.3125 79.953125 C 67.332031 79.910156 67.347656 79.863281 67.367188 79.820312 L 67.367188 79.804688 L 67.453125 79.605469 C 68.589844 76.902344 70.839844 75.65625 73.757812 75.617188 L 73.792969 75.617188 L 87.125 76.234375 C 80.492188 92.921875 64.199219 104.71875 45.144531 104.71875 C 20.199219 104.707031 -0.015625 84.488281 -0.015625 59.546875 " fill-opacity="1" fill-rule="evenodd"/></g><g clip-path="url(#75cd9885ef)"><g clip-path="url(#500abee130)"><path fill="#ff3b00" d="M 94.113281 52.648438 L 375.050781 52.648438 L 375.050781 90.320312 L 94.113281 90.320312 Z M 94.113281 52.648438 " fill-opacity="1" fill-rule="nonzero"/></g></g><g fill="#ff3b00" fill-opacity="1"><g transform="translate(94.115067, 45.446952)"><g><path d="M 23.09375 -0.078125 C 23.125 -1.625 23.125 -3.203125 23.125 -4.75 C 23.125 -11.0625 23.484375 -17.96875 22.90625 -24.203125 C 22.078125 -24.34375 21.21875 -24.34375 20.34375 -24.34375 C 19.625 -24.34375 18.65625 -24.3125 17.9375 -24.171875 C 17.6875 -20.03125 18 -15.84375 18 -11.703125 C 18 -10.015625 17.9375 -8.3125 17.90625 -6.625 L 17.640625 -6.625 C 15.8125 -12.46875 12.75 -18.296875 10.375 -24.0625 C 9.546875 -24.171875 8.71875 -24.34375 7.890625 -24.34375 L 5.359375 -24.34375 L 3.234375 -24.3125 C 3.140625 -21.859375 3.140625 -19.453125 3.140625 -17 L 3.140625 -6.046875 C 3.140625 -4.03125 3.203125 -2.046875 3.28125 -0.03125 L 3.8125 0 L 7.234375 0 C 7.59375 0 8 -0.03125 8.390625 -0.109375 C 8.75 -4.140625 8.390625 -8.28125 8.390625 -12.3125 L 8.421875 -16.78125 L 8.640625 -16.78125 C 10.078125 -10.84375 12.71875 -5.71875 15.484375 -0.28125 C 17.28125 -0.078125 19.09375 -0.03125 20.890625 -0.03125 Z M 23.09375 -0.078125 "/></g></g></g><g fill="#ff3b00" fill-opacity="1"><g transform="translate(117.125083, 45.446952)"><g><path d="M 20.5625 0.078125 L 20.640625 -0.828125 C 20.640625 -3.28125 16.5625 -20.5625 15.59375 -24.3125 C 13.609375 -24.421875 11.640625 -24.375 9.65625 -24.375 C 8.828125 -24.375 8 -24.3125 7.171875 -24.28125 C 5.40625 -16.53125 2.265625 -7.8125 1.078125 -0.140625 C 1.625 -0.078125 2.203125 0 2.734375 0 L 5.046875 0 L 6.296875 -0.078125 C 6.84375 -2.015625 7.3125 -3.96875 7.703125 -5.9375 C 9.046875 -6.015625 10.375 -6.046875 11.671875 -6.046875 L 14.15625 -6.046875 C 14.65625 -4.0625 15.09375 -2.015625 15.59375 -0.03125 C 16.03125 0.03125 16.453125 0.078125 16.890625 0.078125 Z M 10.046875 -10.65625 C 9.65625 -10.65625 9.296875 -10.65625 8.890625 -10.703125 C 9.140625 -13.546875 10.296875 -16.203125 10.796875 -18.984375 C 10.984375 -19.015625 11.203125 -19.015625 11.375 -19.015625 C 12.421875 -19.015625 12.609375 -16.203125 12.75 -15.453125 C 13.078125 -13.90625 13.46875 -12.390625 13.609375 -10.796875 C 12.671875 -10.59375 11.484375 -10.65625 10.546875 -10.65625 Z M 10.046875 -10.65625 "/></g></g></g><g fill="#ff3b00" fill-opacity="1"><g transform="translate(135.453573, 45.446952)"><g><path d="M 20.75 0.109375 C 21 0.109375 21.359375 0 21.609375 -0.078125 C 21.328125 -3.28125 18.6875 -6.734375 17.796875 -9.96875 C 20.203125 -11.78125 21.421875 -13.546875 21.421875 -16.640625 C 21.421875 -24.28125 13.796875 -24.34375 8.109375 -24.34375 C 6.59375 -24.34375 4.859375 -24.484375 3.34375 -24.203125 C 3.203125 -23.40625 3.203125 -22.578125 3.203125 -21.75 C 3.203125 -18.796875 2.921875 -1.15625 3.640625 0.03125 L 5.109375 0.078125 C 6.296875 0.078125 7.421875 0.03125 8.609375 -0.1875 C 8.828125 -2.40625 8.640625 -4.75 8.609375 -6.984375 C 8.609375 -7.703125 8.609375 -8.46875 8.6875 -9.1875 C 9.25 -9.25 9.875 -9.25 10.4375 -9.25 C 11.3125 -9.25 12.25 -9.296875 13.03125 -8.96875 C 13.65625 -7.234375 15.953125 -1.046875 16.921875 0.109375 Z M 8.609375 -15.625 C 8.609375 -16.5 8.640625 -17.4375 8.640625 -18.328125 C 8.640625 -19.34375 8.46875 -19.875 9.65625 -19.875 C 12.140625 -19.875 16.171875 -20.0625 16.171875 -16.609375 C 16.171875 -13 12 -13.1875 9.40625 -13.1875 C 9.109375 -13.1875 8.78125 -13.25 8.609375 -13.5 Z M 8.609375 -15.625 "/></g></g></g><g fill="#ff3b00" fill-opacity="1"><g transform="translate(155.654671, 45.446952)"><g><path d="M 20.5625 0.078125 L 20.640625 -0.828125 C 20.640625 -3.28125 16.5625 -20.5625 15.59375 -24.3125 C 13.609375 -24.421875 11.640625 -24.375 9.65625 -24.375 C 8.828125 -24.375 8 -24.3125 7.171875 -24.28125 C 5.40625 -16.53125 2.265625 -7.8125 1.078125 -0.140625 C 1.625 -0.078125 2.203125 0 2.734375 0 L 5.046875 0 L 6.296875 -0.078125 C 6.84375 -2.015625 7.3125 -3.96875 7.703125 -5.9375 C 9.046875 -6.015625 10.375 -6.046875 11.671875 -6.046875 L 14.15625 -6.046875 C 14.65625 -4.0625 15.09375 -2.015625 15.59375 -0.03125 C 16.03125 0.03125 16.453125 0.078125 16.890625 0.078125 Z M 10.046875 -10.65625 C 9.65625 -10.65625 9.296875 -10.65625 8.890625 -10.703125 C 9.140625 -13.546875 10.296875 -16.203125 10.796875 -18.984375 C 10.984375 -19.015625 11.203125 -19.015625 11.375 -19.015625 C 12.421875 -19.015625 12.609375 -16.203125 12.75 -15.453125 C 13.078125 -13.90625 13.46875 -12.390625 13.609375 -10.796875 C 12.671875 -10.59375 11.484375 -10.65625 10.546875 -10.65625 Z M 10.046875 -10.65625 "/></g></g></g><g fill="#ff3b00" fill-opacity="1"><g transform="translate(173.98316, 45.446952)"><g><path d="M 1.6875 -4.9375 C 1.90625 -4.75 4.0625 0.546875 10.734375 0.546875 C 15.703125 0.546875 18.90625 -2.40625 18.90625 -6.734375 C 18.90625 -14.84375 7.640625 -14.15625 7.640625 -18.375 C 7.640625 -19.453125 8.359375 -20.53125 10.15625 -20.53125 C 11.953125 -20.53125 13.4375 -19.453125 14.484375 -17.71875 C 14.984375 -17.640625 17.71875 -18.984375 18.078125 -19.15625 C 18.078125 -23.15625 13.828125 -24.890625 10.375 -24.890625 C 6.625 -24.890625 2.453125 -22.875 2.453125 -18.1875 C 2.453125 -10.515625 13.796875 -11.640625 13.796875 -6.84375 C 13.796875 -5.359375 12.75 -4.171875 10.734375 -4.171875 C 8.53125 -4.171875 6.15625 -5.546875 5.328125 -7.8125 C 3.09375 -8.6875 1.875 -5.296875 1.6875 -4.9375 Z M 1.6875 -4.9375 "/></g></g></g><g fill="#ff3b00" fill-opacity="1"><g transform="translate(191.555413, 45.446952)"><g><path d="M 20.5625 0.078125 L 20.640625 -0.828125 C 20.640625 -3.28125 16.5625 -20.5625 15.59375 -24.3125 C 13.609375 -24.421875 11.640625 -24.375 9.65625 -24.375 C 8.828125 -24.375 8 -24.3125 7.171875 -24.28125 C 5.40625 -16.53125 2.265625 -7.8125 1.078125 -0.140625 C 1.625 -0.078125 2.203125 0 2.734375 0 L 5.046875 0 L 6.296875 -0.078125 C 6.84375 -2.015625 7.3125 -3.96875 7.703125 -5.9375 C 9.046875 -6.015625 10.375 -6.046875 11.671875 -6.046875 L 14.15625 -6.046875 C 14.65625 -4.0625 15.09375 -2.015625 15.59375 -0.03125 C 16.03125 0.03125 16.453125 0.078125 16.890625 0.078125 Z M 10.046875 -10.65625 C 9.65625 -10.65625 9.296875 -10.65625 8.890625 -10.703125 C 9.140625 -13.546875 10.296875 -16.203125 10.796875 -18.984375 C 10.984375 -19.015625 11.203125 -19.015625 11.375 -19.015625 C 12.421875 -19.015625 12.609375 -16.203125 12.75 -15.453125 C 13.078125 -13.90625 13.46875 -12.390625 13.609375 -10.796875 C 12.671875 -10.59375 11.484375 -10.65625 10.546875 -10.65625 Z M 10.046875 -10.65625 "/></g></g></g><g fill="#ff3b00" fill-opacity="1"><g transform="translate(209.883903, 45.446952)"><g><path d="M 28.5625 -2.125 C 28.5625 -9.25 29.171875 -17.21875 28.34375 -24.234375 C 27.515625 -24.28125 26.6875 -24.34375 25.859375 -24.34375 L 23.015625 -24.34375 C 22.4375 -24.34375 21.890625 -24.3125 21.328125 -24.234375 C 19.953125 -19.734375 18.46875 -16.859375 15.84375 -10.265625 C 14.125 -14.796875 12.09375 -19.203125 10.65625 -23.875 C 9.875 -24.0625 9.046875 -24.3125 8.21875 -24.3125 L 5.625 -24.3125 L 3.453125 -24.234375 C 3.390625 -23.546875 3.390625 -22.90625 3.390625 -22.21875 C 3.390625 -15.015625 2.84375 -7.234375 3.453125 -0.078125 C 4.578125 0.078125 5.65625 0.03125 6.765625 0.03125 C 7.390625 0.03125 8.03125 -0.078125 8.640625 -0.109375 C 8.828125 -3.640625 8.421875 -7.125 8.421875 -10.65625 L 8.46875 -16.34375 L 8.71875 -16.3125 C 9.71875 -12.421875 11.171875 -9.21875 12.640625 -5.46875 C 14.328125 -4.859375 14.625 -4.859375 16.453125 -4.859375 C 17.140625 -4.859375 17.828125 -5.109375 18.46875 -5.21875 C 20.3125 -9.25 22.15625 -12.171875 23.125 -16.53125 L 23.34375 -16.53125 C 23.484375 -11.125 22.984375 -5.40625 23.546875 -0.03125 C 24.34375 0.03125 25.140625 0.03125 25.9375 0.03125 C 26.796875 0.03125 27.65625 0.03125 28.53125 -0.03125 Z M 28.5625 -2.125 "/></g></g></g><g fill="#ff3b00" fill-opacity="1"><g transform="translate(238.439714, 45.446952)"><g><path d="M 28.5625 -2.125 C 28.5625 -9.25 29.171875 -17.21875 28.34375 -24.234375 C 27.515625 -24.28125 26.6875 -24.34375 25.859375 -24.34375 L 23.015625 -24.34375 C 22.4375 -24.34375 21.890625 -24.3125 21.328125 -24.234375 C 19.953125 -19.734375 18.46875 -16.859375 15.84375 -10.265625 C 14.125 -14.796875 12.09375 -19.203125 10.65625 -23.875 C 9.875 -24.0625 9.046875 -24.3125 8.21875 -24.3125 L 5.625 -24.3125 L 3.453125 -24.234375 C 3.390625 -23.546875 3.390625 -22.90625 3.390625 -22.21875 C 3.390625 -15.015625 2.84375 -7.234375 3.453125 -0.078125 C 4.578125 0.078125 5.65625 0.03125 6.765625 0.03125 C 7.390625 0.03125 8.03125 -0.078125 8.640625 -0.109375 C 8.828125 -3.640625 8.421875 -7.125 8.421875 -10.65625 L 8.46875 -16.34375 L 8.71875 -16.3125 C 9.71875 -12.421875 11.171875 -9.21875 12.640625 -5.46875 C 14.328125 -4.859375 14.625 -4.859375 16.453125 -4.859375 C 17.140625 -4.859375 17.828125 -5.109375 18.46875 -5.21875 C 20.3125 -9.25 22.15625 -12.171875 23.125 -16.53125 L 23.34375 -16.53125 C 23.484375 -11.125 22.984375 -5.40625 23.546875 -0.03125 C 24.34375 0.03125 25.140625 0.03125 25.9375 0.03125 C 26.796875 0.03125 27.65625 0.03125 28.53125 -0.03125 Z M 28.5625 -2.125 "/></g></g></g><g fill="#ff3b00" fill-opacity="1"><g transform="translate(266.995525, 45.446952)"><g><path d="M 20.5625 0.078125 L 20.640625 -0.828125 C 20.640625 -3.28125 16.5625 -20.5625 15.59375 -24.3125 C 13.609375 -24.421875 11.640625 -24.375 9.65625 -24.375 C 8.828125 -24.375 8 -24.3125 7.171875 -24.28125 C 5.40625 -16.53125 2.265625 -7.8125 1.078125 -0.140625 C 1.625 -0.078125 2.203125 0 2.734375 0 L 5.046875 0 L 6.296875 -0.078125 C 6.84375 -2.015625 7.3125 -3.96875 7.703125 -5.9375 C 9.046875 -6.015625 10.375 -6.046875 11.671875 -6.046875 L 14.15625 -6.046875 C 14.65625 -4.0625 15.09375 -2.015625 15.59375 -0.03125 C 16.03125 0.03125 16.453125 0.078125 16.890625 0.078125 Z M 10.046875 -10.65625 C 9.65625 -10.65625 9.296875 -10.65625 8.890625 -10.703125 C 9.140625 -13.546875 10.296875 -16.203125 10.796875 -18.984375 C 10.984375 -19.015625 11.203125 -19.015625 11.375 -19.015625 C 12.421875 -19.015625 12.609375 -16.203125 12.75 -15.453125 C 13.078125 -13.90625 13.46875 -12.390625 13.609375 -10.796875 C 12.671875 -10.59375 11.484375 -10.65625 10.546875 -10.65625 Z M 10.046875 -10.65625 "/></g></g></g><g fill="#ff3b00" fill-opacity="1"><g transform="translate(285.329902, 45.446952)"><g/></g></g><g fill="#ff3b00" fill-opacity="1"><g transform="translate(290.946272, 45.446952)"><g/></g></g><g fill="#ff3b00" fill-opacity="1"><g transform="translate(296.568179, 45.446952)"><g><path d="M 1.6875 -4.9375 C 1.90625 -4.75 4.0625 0.546875 10.734375 0.546875 C 15.703125 0.546875 18.90625 -2.40625 18.90625 -6.734375 C 18.90625 -14.84375 7.640625 -14.15625 7.640625 -18.375 C 7.640625 -19.453125 8.359375 -20.53125 10.15625 -20.53125 C 11.953125 -20.53125 13.4375 -19.453125 14.484375 -17.71875 C 14.984375 -17.640625 17.71875 -18.984375 18.078125 -19.15625 C 18.078125 -23.15625 13.828125 -24.890625 10.375 -24.890625 C 6.625 -24.890625 2.453125 -22.875 2.453125 -18.1875 C 2.453125 -10.515625 13.796875 -11.640625 13.796875 -6.84375 C 13.796875 -5.359375 12.75 -4.171875 10.734375 -4.171875 C 8.53125 -4.171875 6.15625 -5.546875 5.328125 -7.8125 C 3.09375 -8.6875 1.875 -5.296875 1.6875 -4.9375 Z M 1.6875 -4.9375 "/></g></g></g><g fill="#ff3b00" fill-opacity="1"><g transform="translate(314.140432, 45.446952)"><g><path d="M 16.25 -11.3125 C 16.25 -8.46875 15.890625 -4.71875 12.203125 -4.71875 C 6.265625 -4.71875 8.0625 -18.9375 8.140625 -22.875 L 8.109375 -24.28125 L 6.765625 -24.34375 L 4.609375 -24.34375 L 3.203125 -24.28125 C 3.09375 -23.125 3.140625 -21.9375 3.140625 -20.78125 C 3.140625 -13.078125 0.609375 0.359375 11.953125 0.359375 C 22.515625 0.359375 21.328125 -11.34375 21.328125 -18.84375 C 21.328125 -20.671875 21.171875 -22.515625 21.0625 -24.3125 L 18.078125 -24.34375 L 17.21875 -24.421875 C 15.484375 -24.484375 16.25 -20.453125 16.25 -18.734375 Z M 16.25 -11.3125 "/></g></g></g><g fill="#ff3b00" fill-opacity="1"><g transform="translate(335.025761, 45.446952)"><g><path d="M 20.75 0.109375 C 21 0.109375 21.359375 0 21.609375 -0.078125 C 21.328125 -3.28125 18.6875 -6.734375 17.796875 -9.96875 C 20.203125 -11.78125 21.421875 -13.546875 21.421875 -16.640625 C 21.421875 -24.28125 13.796875 -24.34375 8.109375 -24.34375 C 6.59375 -24.34375 4.859375 -24.484375 3.34375 -24.203125 C 3.203125 -23.40625 3.203125 -22.578125 3.203125 -21.75 C 3.203125 -18.796875 2.921875 -1.15625 3.640625 0.03125 L 5.109375 0.078125 C 6.296875 0.078125 7.421875 0.03125 8.609375 -0.1875 C 8.828125 -2.40625 8.640625 -4.75 8.609375 -6.984375 C 8.609375 -7.703125 8.609375 -8.46875 8.6875 -9.1875 C 9.25 -9.25 9.875 -9.25 10.4375 -9.25 C 11.3125 -9.25 12.25 -9.296875 13.03125 -8.96875 C 13.65625 -7.234375 15.953125 -1.046875 16.921875 0.109375 Z M 8.609375 -15.625 C 8.609375 -16.5 8.640625 -17.4375 8.640625 -18.328125 C 8.640625 -19.34375 8.46875 -19.875 9.65625 -19.875 C 12.140625 -19.875 16.171875 -20.0625 16.171875 -16.609375 C 16.171875 -13 12 -13.1875 9.40625 -13.1875 C 9.109375 -13.1875 8.78125 -13.25 8.609375 -13.5 Z M 8.609375 -15.625 "/></g></g></g><g fill="#ff3b00" fill-opacity="1"><g transform="translate(355.226858, 45.446952)"><g><path d="M 8.46875 -0.03125 C 8.78125 -7.84375 8.640625 -16.28125 8.640625 -24.125 C 8.640625 -24.125 8.28125 -24.28125 8.140625 -24.28125 L 5.875 -24.34375 C 5 -24.34375 4.140625 -24.3125 3.28125 -24.203125 C 3.203125 -23.09375 3.140625 -22 3.140625 -20.890625 L 3.140625 -3.234375 C 3.140625 -2.203125 3.171875 -1.15625 3.28125 -0.109375 C 3.5625 -0.078125 3.859375 0 4.140625 0 L 7.8125 0 Z M 8.46875 -0.03125 "/></g></g></g><g fill="#f6e8ce" fill-opacity="1"><g transform="translate(160.476908, 77.485418)"><g><path d="M 15.5 -9.390625 C 15.28125 -8.609375 14.875 -7.992188 14.28125 -7.546875 C 13.6875 -7.109375 12.9375 -6.835938 12.03125 -6.734375 C 12.675781 -6.679688 13.160156 -6.488281 13.484375 -6.15625 C 13.804688 -5.832031 13.96875 -5.410156 13.96875 -4.890625 C 13.96875 -4.679688 13.9375 -4.429688 13.875 -4.140625 L 13.65625 -3.140625 C 13.625 -3.003906 13.609375 -2.910156 13.609375 -2.859375 C 13.609375 -2.679688 13.648438 -2.546875 13.734375 -2.453125 C 13.816406 -2.367188 13.929688 -2.328125 14.078125 -2.328125 C 14.359375 -2.328125 14.5625 -2.285156 14.6875 -2.203125 C 14.820312 -2.128906 14.867188 -1.984375 14.828125 -1.765625 C 14.773438 -1.453125 14.613281 -1.144531 14.34375 -0.84375 C 14.070312 -0.550781 13.6875 -0.304688 13.1875 -0.109375 C 12.695312 0.0859375 12.097656 0.1875 11.390625 0.1875 C 10.503906 0.1875 9.796875 -0.0078125 9.265625 -0.40625 C 8.742188 -0.8125 8.484375 -1.382812 8.484375 -2.125 C 8.484375 -2.414062 8.519531 -2.722656 8.59375 -3.046875 L 8.921875 -4.34375 C 8.972656 -4.519531 9 -4.703125 9 -4.890625 C 9 -5.203125 8.894531 -5.425781 8.6875 -5.5625 C 8.476562 -5.695312 8.144531 -5.765625 7.6875 -5.765625 L 6.921875 -5.765625 L 5.984375 -2.390625 C 5.953125 -2.304688 5.9375 -2.207031 5.9375 -2.09375 C 5.9375 -1.90625 5.984375 -1.742188 6.078125 -1.609375 C 6.171875 -1.472656 6.300781 -1.328125 6.46875 -1.171875 C 6.59375 -1.078125 6.6875 -0.984375 6.75 -0.890625 C 6.820312 -0.804688 6.859375 -0.71875 6.859375 -0.625 C 6.859375 -0.394531 6.75 -0.234375 6.53125 -0.140625 C 6.3125 -0.046875 5.992188 0 5.578125 0 L 0.484375 0 C 0.128906 0 -0.128906 -0.0625 -0.296875 -0.1875 C -0.472656 -0.320312 -0.535156 -0.503906 -0.484375 -0.734375 C -0.460938 -0.847656 -0.410156 -0.941406 -0.328125 -1.015625 C -0.253906 -1.097656 -0.144531 -1.1875 0 -1.28125 C 0.226562 -1.414062 0.410156 -1.554688 0.546875 -1.703125 C 0.679688 -1.847656 0.789062 -2.078125 0.875 -2.390625 L 3.34375 -11.140625 C 3.394531 -11.304688 3.421875 -11.472656 3.421875 -11.640625 C 3.421875 -11.785156 3.394531 -11.910156 3.34375 -12.015625 C 3.300781 -12.117188 3.238281 -12.238281 3.15625 -12.375 C 3.039062 -12.550781 2.984375 -12.691406 2.984375 -12.796875 C 2.984375 -12.835938 2.992188 -12.910156 3.015625 -13.015625 C 3.078125 -13.191406 3.195312 -13.316406 3.375 -13.390625 C 3.5625 -13.460938 3.84375 -13.5 4.21875 -13.5 L 11.015625 -13.5 C 11.941406 -13.5 12.753906 -13.359375 13.453125 -13.078125 C 14.148438 -12.796875 14.679688 -12.40625 15.046875 -11.90625 C 15.421875 -11.414062 15.609375 -10.859375 15.609375 -10.234375 C 15.609375 -9.953125 15.570312 -9.671875 15.5 -9.390625 Z M 10.296875 -9.59375 C 10.367188 -9.90625 10.40625 -10.140625 10.40625 -10.296875 C 10.40625 -11.015625 10.015625 -11.375 9.234375 -11.375 L 8.375 -11.375 L 7.484375 -7.78125 L 8.328125 -7.78125 C 8.859375 -7.78125 9.273438 -7.910156 9.578125 -8.171875 C 9.890625 -8.429688 10.128906 -8.90625 10.296875 -9.59375 Z M 10.296875 -9.59375 "/></g></g></g><g fill="#f6e8ce" fill-opacity="1"><g transform="translate(175.864404, 77.485418)"><g><path d="M 13.25 -13.5 C 13.75 -13.5 14.132812 -13.390625 14.40625 -13.171875 C 14.6875 -12.960938 14.828125 -12.671875 14.828125 -12.296875 C 14.828125 -12.097656 14.800781 -11.914062 14.75 -11.75 L 14.21875 -9.859375 C 14.125 -9.492188 13.984375 -9.238281 13.796875 -9.09375 C 13.617188 -8.957031 13.359375 -8.890625 13.015625 -8.890625 C 12.691406 -8.890625 12.4375 -8.957031 12.25 -9.09375 C 12.070312 -9.238281 11.9375 -9.472656 11.84375 -9.796875 L 11.515625 -10.953125 C 11.453125 -11.191406 11.375 -11.351562 11.28125 -11.4375 C 11.1875 -11.519531 11.003906 -11.5625 10.734375 -11.5625 L 8.59375 -11.5625 L 7.578125 -7.953125 L 8.484375 -7.953125 C 8.578125 -7.953125 8.703125 -8.019531 8.859375 -8.15625 L 9.546875 -8.765625 C 9.753906 -8.941406 9.929688 -9.066406 10.078125 -9.140625 C 10.222656 -9.222656 10.40625 -9.265625 10.625 -9.265625 C 10.875 -9.265625 11.070312 -9.203125 11.21875 -9.078125 C 11.375 -8.953125 11.453125 -8.785156 11.453125 -8.578125 C 11.453125 -8.523438 11.441406 -8.441406 11.421875 -8.328125 L 10.59375 -5.515625 C 10.507812 -5.222656 10.367188 -5.003906 10.171875 -4.859375 C 9.972656 -4.710938 9.757812 -4.640625 9.53125 -4.640625 C 9.15625 -4.640625 8.875 -4.835938 8.6875 -5.234375 L 8.328125 -5.9375 C 8.234375 -6.144531 8.085938 -6.25 7.890625 -6.25 L 7.09375 -6.25 L 5.90625 -1.953125 L 7.6875 -1.953125 C 7.945312 -1.953125 8.171875 -2 8.359375 -2.09375 C 8.554688 -2.195312 8.769531 -2.378906 9 -2.640625 L 10.21875 -3.96875 C 10.4375 -4.195312 10.644531 -4.363281 10.84375 -4.46875 C 11.039062 -4.570312 11.28125 -4.625 11.5625 -4.625 C 11.851562 -4.625 12.09375 -4.554688 12.28125 -4.421875 C 12.476562 -4.285156 12.578125 -4.082031 12.578125 -3.8125 C 12.578125 -3.707031 12.554688 -3.578125 12.515625 -3.421875 L 11.921875 -1.375 C 11.773438 -0.863281 11.554688 -0.503906 11.265625 -0.296875 C 10.984375 -0.0976562 10.578125 0 10.046875 0 L 0.359375 0 C 0.078125 0 -0.140625 -0.046875 -0.296875 -0.140625 C -0.453125 -0.234375 -0.53125 -0.363281 -0.53125 -0.53125 C -0.53125 -0.613281 -0.507812 -0.703125 -0.46875 -0.796875 C -0.414062 -0.941406 -0.328125 -1.050781 -0.203125 -1.125 C -0.078125 -1.207031 -0.00390625 -1.257812 0.015625 -1.28125 C 0.234375 -1.414062 0.410156 -1.550781 0.546875 -1.6875 C 0.679688 -1.832031 0.796875 -2.066406 0.890625 -2.390625 L 3.390625 -11.140625 C 3.441406 -11.304688 3.46875 -11.46875 3.46875 -11.625 C 3.46875 -11.78125 3.441406 -11.910156 3.390625 -12.015625 C 3.347656 -12.128906 3.28125 -12.25 3.1875 -12.375 C 3.0625 -12.550781 3 -12.691406 3 -12.796875 C 3 -12.835938 3.015625 -12.910156 3.046875 -13.015625 C 3.097656 -13.191406 3.21875 -13.316406 3.40625 -13.390625 C 3.59375 -13.460938 3.867188 -13.5 4.234375 -13.5 Z M 13.25 -13.5 "/></g></g></g><g fill="#f6e8ce" fill-opacity="1"><g transform="translate(189.467846, 77.485418)"><g><path d="M 7.578125 -13.625 C 8.335938 -13.625 9.035156 -13.53125 9.671875 -13.34375 C 10.316406 -13.164062 10.972656 -12.882812 11.640625 -12.5 L 12.109375 -12.875 C 12.429688 -13.132812 12.695312 -13.3125 12.90625 -13.40625 C 13.113281 -13.5 13.351562 -13.546875 13.625 -13.546875 C 13.945312 -13.546875 14.203125 -13.472656 14.390625 -13.328125 C 14.585938 -13.191406 14.6875 -12.988281 14.6875 -12.71875 C 14.6875 -12.601562 14.664062 -12.488281 14.625 -12.375 L 13.765625 -9.578125 C 13.671875 -9.253906 13.550781 -9.023438 13.40625 -8.890625 C 13.269531 -8.753906 13.0625 -8.6875 12.78125 -8.6875 C 12.476562 -8.6875 12.210938 -8.773438 11.984375 -8.953125 C 11.765625 -9.140625 11.421875 -9.515625 10.953125 -10.078125 C 10.472656 -10.617188 10.039062 -11 9.65625 -11.21875 C 9.28125 -11.445312 8.890625 -11.5625 8.484375 -11.5625 C 8.179688 -11.5625 7.925781 -11.460938 7.71875 -11.265625 C 7.519531 -11.066406 7.421875 -10.828125 7.421875 -10.546875 C 7.421875 -10.222656 7.582031 -9.921875 7.90625 -9.640625 C 8.226562 -9.367188 8.738281 -9.019531 9.4375 -8.59375 C 10.132812 -8.175781 10.710938 -7.796875 11.171875 -7.453125 C 11.628906 -7.117188 12.019531 -6.703125 12.34375 -6.203125 C 12.675781 -5.703125 12.84375 -5.128906 12.84375 -4.484375 C 12.84375 -4.066406 12.773438 -3.644531 12.640625 -3.21875 C 12.316406 -2.144531 11.6875 -1.328125 10.75 -0.765625 C 9.8125 -0.203125 8.722656 0.078125 7.484375 0.078125 C 6.546875 0.078125 5.757812 -0.0234375 5.125 -0.234375 C 4.488281 -0.453125 3.84375 -0.820312 3.1875 -1.34375 L 2.453125 -0.734375 C 2.117188 -0.441406 1.84375 -0.242188 1.625 -0.140625 C 1.40625 -0.046875 1.160156 0 0.890625 0 C 0.578125 0 0.328125 -0.0703125 0.140625 -0.21875 C -0.0351562 -0.375 -0.125 -0.578125 -0.125 -0.828125 C -0.125 -0.960938 -0.0976562 -1.101562 -0.046875 -1.25 L 0.953125 -4.28125 C 1.054688 -4.632812 1.203125 -4.882812 1.390625 -5.03125 C 1.585938 -5.175781 1.832031 -5.25 2.125 -5.25 C 2.4375 -5.25 2.71875 -5.140625 2.96875 -4.921875 C 3.21875 -4.710938 3.546875 -4.320312 3.953125 -3.75 C 4.390625 -3.125 4.789062 -2.691406 5.15625 -2.453125 C 5.53125 -2.210938 5.972656 -2.09375 6.484375 -2.09375 C 6.847656 -2.09375 7.128906 -2.148438 7.328125 -2.265625 C 7.523438 -2.378906 7.664062 -2.5625 7.75 -2.8125 C 7.769531 -2.882812 7.78125 -2.988281 7.78125 -3.125 C 7.78125 -3.445312 7.625 -3.742188 7.3125 -4.015625 C 7.007812 -4.285156 6.53125 -4.609375 5.875 -4.984375 C 5.1875 -5.410156 4.625 -5.785156 4.1875 -6.109375 C 3.757812 -6.441406 3.382812 -6.859375 3.0625 -7.359375 C 2.75 -7.859375 2.59375 -8.445312 2.59375 -9.125 C 2.59375 -9.601562 2.664062 -10.070312 2.8125 -10.53125 C 3.101562 -11.457031 3.6875 -12.203125 4.5625 -12.765625 C 5.4375 -13.335938 6.441406 -13.625 7.578125 -13.625 Z M 7.578125 -13.625 "/></g></g></g><g fill="#f6e8ce" fill-opacity="1"><g transform="translate(203.436206, 77.485418)"><g><path d="M 16.25 -13.5 C 16.988281 -13.5 17.359375 -13.195312 17.359375 -12.59375 C 17.359375 -12.40625 17.316406 -12.171875 17.234375 -11.890625 L 16.75 -10.234375 C 16.601562 -9.734375 16.421875 -9.382812 16.203125 -9.1875 C 15.984375 -8.988281 15.671875 -8.890625 15.265625 -8.890625 C 14.929688 -8.890625 14.671875 -8.972656 14.484375 -9.140625 C 14.304688 -9.316406 14.132812 -9.597656 13.96875 -9.984375 L 13.625 -10.8125 C 13.519531 -11.0625 13.40625 -11.234375 13.28125 -11.328125 C 13.164062 -11.429688 12.976562 -11.484375 12.71875 -11.484375 L 12.25 -11.484375 L 9.671875 -2.40625 C 9.628906 -2.238281 9.609375 -2.085938 9.609375 -1.953125 C 9.609375 -1.785156 9.628906 -1.644531 9.671875 -1.53125 C 9.722656 -1.425781 9.796875 -1.316406 9.890625 -1.203125 C 10.015625 -1.003906 10.078125 -0.847656 10.078125 -0.734375 C 10.078125 -0.703125 10.066406 -0.632812 10.046875 -0.53125 C 9.972656 -0.351562 9.835938 -0.222656 9.640625 -0.140625 C 9.441406 -0.0546875 9.160156 -0.015625 8.796875 -0.015625 L 4.03125 -0.015625 C 3.75 -0.015625 3.53125 -0.0625 3.375 -0.15625 C 3.21875 -0.25 3.140625 -0.382812 3.140625 -0.5625 C 3.140625 -0.644531 3.160156 -0.726562 3.203125 -0.8125 C 3.253906 -0.9375 3.316406 -1.023438 3.390625 -1.078125 C 3.472656 -1.140625 3.585938 -1.21875 3.734375 -1.3125 C 3.929688 -1.4375 4.097656 -1.570312 4.234375 -1.71875 C 4.367188 -1.875 4.484375 -2.101562 4.578125 -2.40625 L 7.140625 -11.484375 L 6.671875 -11.484375 C 6.367188 -11.484375 6.125 -11.429688 5.9375 -11.328125 C 5.75 -11.234375 5.546875 -11.0625 5.328125 -10.8125 L 4.671875 -9.984375 C 4.359375 -9.617188 4.054688 -9.34375 3.765625 -9.15625 C 3.472656 -8.976562 3.15625 -8.890625 2.8125 -8.890625 C 2.507812 -8.890625 2.269531 -8.96875 2.09375 -9.125 C 1.914062 -9.289062 1.828125 -9.515625 1.828125 -9.796875 C 1.828125 -9.929688 1.847656 -10.078125 1.890625 -10.234375 L 2.40625 -12.09375 C 2.519531 -12.46875 2.644531 -12.753906 2.78125 -12.953125 C 2.914062 -13.148438 3.109375 -13.289062 3.359375 -13.375 C 3.609375 -13.457031 3.960938 -13.5 4.421875 -13.5 Z M 16.25 -13.5 "/></g></g></g><g fill="#f6e8ce" fill-opacity="1"><g transform="translate(218.823702, 77.485418)"><g><path d="M 12.390625 -2.390625 C 12.335938 -2.210938 12.3125 -2.035156 12.3125 -1.859375 C 12.3125 -1.710938 12.332031 -1.585938 12.375 -1.484375 C 12.414062 -1.390625 12.457031 -1.3125 12.5 -1.25 C 12.550781 -1.1875 12.582031 -1.140625 12.59375 -1.109375 C 12.726562 -0.972656 12.796875 -0.835938 12.796875 -0.703125 C 12.796875 -0.679688 12.78125 -0.613281 12.75 -0.5 C 12.695312 -0.3125 12.578125 -0.179688 12.390625 -0.109375 C 12.210938 -0.0351562 11.9375 0 11.5625 0 L 6.75 0 C 6.46875 0 6.25 -0.046875 6.09375 -0.140625 C 5.9375 -0.234375 5.859375 -0.363281 5.859375 -0.53125 C 5.859375 -0.613281 5.878906 -0.703125 5.921875 -0.796875 C 5.960938 -0.898438 6.019531 -0.984375 6.09375 -1.046875 C 6.164062 -1.109375 6.269531 -1.175781 6.40625 -1.25 C 6.625 -1.375 6.800781 -1.507812 6.9375 -1.65625 C 7.070312 -1.8125 7.1875 -2.054688 7.28125 -2.390625 L 7.8125 -4.140625 L 4.640625 -4.140625 L 4.09375 -2.984375 C 3.863281 -2.484375 3.75 -2.09375 3.75 -1.8125 C 3.75 -1.644531 3.773438 -1.507812 3.828125 -1.40625 C 3.890625 -1.300781 3.972656 -1.195312 4.078125 -1.09375 C 4.171875 -0.988281 4.234375 -0.894531 4.265625 -0.8125 C 4.296875 -0.738281 4.300781 -0.644531 4.28125 -0.53125 C 4.226562 -0.320312 4.113281 -0.179688 3.9375 -0.109375 C 3.769531 -0.0351562 3.503906 0 3.140625 0 L 0.125 0 C -0.1875 0 -0.421875 -0.0546875 -0.578125 -0.171875 C -0.742188 -0.285156 -0.828125 -0.4375 -0.828125 -0.625 C -0.828125 -0.84375 -0.75 -1.015625 -0.59375 -1.140625 C -0.4375 -1.273438 -0.207031 -1.414062 0.09375 -1.5625 C 0.5 -1.757812 0.820312 -1.957031 1.0625 -2.15625 C 1.3125 -2.351562 1.523438 -2.628906 1.703125 -2.984375 L 5.3125 -10.46875 C 5.863281 -11.625 6.515625 -12.460938 7.265625 -12.984375 C 8.015625 -13.503906 9.003906 -13.765625 10.234375 -13.765625 C 11.617188 -13.765625 12.6875 -13.484375 13.4375 -12.921875 C 14.195312 -12.367188 14.578125 -11.59375 14.578125 -10.59375 C 14.578125 -10.164062 14.507812 -9.726562 14.375 -9.28125 Z M 8.421875 -6.171875 L 9.484375 -9.734375 C 9.546875 -9.898438 9.578125 -10.066406 9.578125 -10.234375 C 9.578125 -10.492188 9.503906 -10.6875 9.359375 -10.8125 C 9.210938 -10.945312 9.015625 -11.015625 8.765625 -11.015625 C 8.441406 -11.015625 8.160156 -10.914062 7.921875 -10.71875 C 7.691406 -10.53125 7.460938 -10.195312 7.234375 -9.71875 L 5.578125 -6.171875 Z M 8.421875 -6.171875 "/></g></g></g><g fill="#f6e8ce" fill-opacity="1"><g transform="translate(232.974527, 77.485418)"><g><path d="M 12.390625 -10.765625 C 12.648438 -11.703125 13.007812 -12.40625 13.46875 -12.875 C 13.9375 -13.351562 14.582031 -13.59375 15.40625 -13.59375 C 16.0625 -13.59375 16.582031 -13.382812 16.96875 -12.96875 C 17.363281 -12.550781 17.5625 -12.039062 17.5625 -11.4375 C 17.5625 -11.238281 17.53125 -11.003906 17.46875 -10.734375 C 17.3125 -10.140625 17.046875 -9.707031 16.671875 -9.4375 C 16.296875 -9.175781 15.882812 -9.046875 15.4375 -9.046875 C 15.207031 -9.046875 15 -9.0625 14.8125 -9.09375 C 14.632812 -9.125 14.460938 -9.171875 14.296875 -9.234375 L 13.109375 -4.828125 C 12.671875 -3.210938 11.941406 -1.984375 10.921875 -1.140625 C 9.910156 -0.296875 8.535156 0.125 6.796875 0.125 C 5.203125 0.125 3.960938 -0.175781 3.078125 -0.78125 C 2.191406 -1.394531 1.75 -2.34375 1.75 -3.625 C 1.75 -4.25 1.851562 -4.929688 2.0625 -5.671875 L 3.609375 -11.140625 C 3.660156 -11.304688 3.6875 -11.472656 3.6875 -11.640625 C 3.6875 -11.804688 3.660156 -11.9375 3.609375 -12.03125 C 3.566406 -12.132812 3.503906 -12.253906 3.421875 -12.390625 C 3.304688 -12.566406 3.25 -12.707031 3.25 -12.8125 C 3.25 -12.875 3.257812 -12.941406 3.28125 -13.015625 C 3.332031 -13.191406 3.453125 -13.316406 3.640625 -13.390625 C 3.835938 -13.460938 4.117188 -13.5 4.484375 -13.5 L 9.25 -13.5 C 9.832031 -13.5 10.125 -13.328125 10.125 -12.984375 C 10.125 -12.898438 10.113281 -12.832031 10.09375 -12.78125 C 10.0625 -12.65625 10.003906 -12.554688 9.921875 -12.484375 C 9.847656 -12.410156 9.738281 -12.328125 9.59375 -12.234375 C 9.375 -12.109375 9.195312 -11.96875 9.0625 -11.8125 C 8.925781 -11.664062 8.8125 -11.441406 8.71875 -11.140625 L 6.953125 -4.921875 C 6.835938 -4.460938 6.78125 -4.070312 6.78125 -3.75 C 6.78125 -2.84375 7.265625 -2.390625 8.234375 -2.390625 C 8.828125 -2.390625 9.320312 -2.582031 9.71875 -2.96875 C 10.125 -3.351562 10.460938 -4.015625 10.734375 -4.953125 Z M 12.390625 -10.765625 "/></g></g></g><g fill="#f6e8ce" fill-opacity="1"><g transform="translate(248.949952, 77.485418)"><g><path d="M 15.5 -9.390625 C 15.28125 -8.609375 14.875 -7.992188 14.28125 -7.546875 C 13.6875 -7.109375 12.9375 -6.835938 12.03125 -6.734375 C 12.675781 -6.679688 13.160156 -6.488281 13.484375 -6.15625 C 13.804688 -5.832031 13.96875 -5.410156 13.96875 -4.890625 C 13.96875 -4.679688 13.9375 -4.429688 13.875 -4.140625 L 13.65625 -3.140625 C 13.625 -3.003906 13.609375 -2.910156 13.609375 -2.859375 C 13.609375 -2.679688 13.648438 -2.546875 13.734375 -2.453125 C 13.816406 -2.367188 13.929688 -2.328125 14.078125 -2.328125 C 14.359375 -2.328125 14.5625 -2.285156 14.6875 -2.203125 C 14.820312 -2.128906 14.867188 -1.984375 14.828125 -1.765625 C 14.773438 -1.453125 14.613281 -1.144531 14.34375 -0.84375 C 14.070312 -0.550781 13.6875 -0.304688 13.1875 -0.109375 C 12.695312 0.0859375 12.097656 0.1875 11.390625 0.1875 C 10.503906 0.1875 9.796875 -0.0078125 9.265625 -0.40625 C 8.742188 -0.8125 8.484375 -1.382812 8.484375 -2.125 C 8.484375 -2.414062 8.519531 -2.722656 8.59375 -3.046875 L 8.921875 -4.34375 C 8.972656 -4.519531 9 -4.703125 9 -4.890625 C 9 -5.203125 8.894531 -5.425781 8.6875 -5.5625 C 8.476562 -5.695312 8.144531 -5.765625 7.6875 -5.765625 L 6.921875 -5.765625 L 5.984375 -2.390625 C 5.953125 -2.304688 5.9375 -2.207031 5.9375 -2.09375 C 5.9375 -1.90625 5.984375 -1.742188 6.078125 -1.609375 C 6.171875 -1.472656 6.300781 -1.328125 6.46875 -1.171875 C 6.59375 -1.078125 6.6875 -0.984375 6.75 -0.890625 C 6.820312 -0.804688 6.859375 -0.71875 6.859375 -0.625 C 6.859375 -0.394531 6.75 -0.234375 6.53125 -0.140625 C 6.3125 -0.046875 5.992188 0 5.578125 0 L 0.484375 0 C 0.128906 0 -0.128906 -0.0625 -0.296875 -0.1875 C -0.472656 -0.320312 -0.535156 -0.503906 -0.484375 -0.734375 C -0.460938 -0.847656 -0.410156 -0.941406 -0.328125 -1.015625 C -0.253906 -1.097656 -0.144531 -1.1875 0 -1.28125 C 0.226562 -1.414062 0.410156 -1.554688 0.546875 -1.703125 C 0.679688 -1.847656 0.789062 -2.078125 0.875 -2.390625 L 3.34375 -11.140625 C 3.394531 -11.304688 3.421875 -11.472656 3.421875 -11.640625 C 3.421875 -11.785156 3.394531 -11.910156 3.34375 -12.015625 C 3.300781 -12.117188 3.238281 -12.238281 3.15625 -12.375 C 3.039062 -12.550781 2.984375 -12.691406 2.984375 -12.796875 C 2.984375 -12.835938 2.992188 -12.910156 3.015625 -13.015625 C 3.078125 -13.191406 3.195312 -13.316406 3.375 -13.390625 C 3.5625 -13.460938 3.84375 -13.5 4.21875 -13.5 L 11.015625 -13.5 C 11.941406 -13.5 12.753906 -13.359375 13.453125 -13.078125 C 14.148438 -12.796875 14.679688 -12.40625 15.046875 -11.90625 C 15.421875 -11.414062 15.609375 -10.859375 15.609375 -10.234375 C 15.609375 -9.953125 15.570312 -9.671875 15.5 -9.390625 Z M 10.296875 -9.59375 C 10.367188 -9.90625 10.40625 -10.140625 10.40625 -10.296875 C 10.40625 -11.015625 10.015625 -11.375 9.234375 -11.375 L 8.375 -11.375 L 7.484375 -7.78125 L 8.328125 -7.78125 C 8.859375 -7.78125 9.273438 -7.910156 9.578125 -8.171875 C 9.890625 -8.429688 10.128906 -8.90625 10.296875 -9.59375 Z M 10.296875 -9.59375 "/></g></g></g><g fill="#f6e8ce" fill-opacity="1"><g transform="translate(264.337448, 77.485418)"><g><path d="M 12.390625 -2.390625 C 12.335938 -2.210938 12.3125 -2.035156 12.3125 -1.859375 C 12.3125 -1.710938 12.332031 -1.585938 12.375 -1.484375 C 12.414062 -1.390625 12.457031 -1.3125 12.5 -1.25 C 12.550781 -1.1875 12.582031 -1.140625 12.59375 -1.109375 C 12.726562 -0.972656 12.796875 -0.835938 12.796875 -0.703125 C 12.796875 -0.679688 12.78125 -0.613281 12.75 -0.5 C 12.695312 -0.3125 12.578125 -0.179688 12.390625 -0.109375 C 12.210938 -0.0351562 11.9375 0 11.5625 0 L 6.75 0 C 6.46875 0 6.25 -0.046875 6.09375 -0.140625 C 5.9375 -0.234375 5.859375 -0.363281 5.859375 -0.53125 C 5.859375 -0.613281 5.878906 -0.703125 5.921875 -0.796875 C 5.960938 -0.898438 6.019531 -0.984375 6.09375 -1.046875 C 6.164062 -1.109375 6.269531 -1.175781 6.40625 -1.25 C 6.625 -1.375 6.800781 -1.507812 6.9375 -1.65625 C 7.070312 -1.8125 7.1875 -2.054688 7.28125 -2.390625 L 7.8125 -4.140625 L 4.640625 -4.140625 L 4.09375 -2.984375 C 3.863281 -2.484375 3.75 -2.09375 3.75 -1.8125 C 3.75 -1.644531 3.773438 -1.507812 3.828125 -1.40625 C 3.890625 -1.300781 3.972656 -1.195312 4.078125 -1.09375 C 4.171875 -0.988281 4.234375 -0.894531 4.265625 -0.8125 C 4.296875 -0.738281 4.300781 -0.644531 4.28125 -0.53125 C 4.226562 -0.320312 4.113281 -0.179688 3.9375 -0.109375 C 3.769531 -0.0351562 3.503906 0 3.140625 0 L 0.125 0 C -0.1875 0 -0.421875 -0.0546875 -0.578125 -0.171875 C -0.742188 -0.285156 -0.828125 -0.4375 -0.828125 -0.625 C -0.828125 -0.84375 -0.75 -1.015625 -0.59375 -1.140625 C -0.4375 -1.273438 -0.207031 -1.414062 0.09375 -1.5625 C 0.5 -1.757812 0.820312 -1.957031 1.0625 -2.15625 C 1.3125 -2.351562 1.523438 -2.628906 1.703125 -2.984375 L 5.3125 -10.46875 C 5.863281 -11.625 6.515625 -12.460938 7.265625 -12.984375 C 8.015625 -13.503906 9.003906 -13.765625 10.234375 -13.765625 C 11.617188 -13.765625 12.6875 -13.484375 13.4375 -12.921875 C 14.195312 -12.367188 14.578125 -11.59375 14.578125 -10.59375 C 14.578125 -10.164062 14.507812 -9.726562 14.375 -9.28125 Z M 8.421875 -6.171875 L 9.484375 -9.734375 C 9.546875 -9.898438 9.578125 -10.066406 9.578125 -10.234375 C 9.578125 -10.492188 9.503906 -10.6875 9.359375 -10.8125 C 9.210938 -10.945312 9.015625 -11.015625 8.765625 -11.015625 C 8.441406 -11.015625 8.160156 -10.914062 7.921875 -10.71875 C 7.691406 -10.53125 7.460938 -10.195312 7.234375 -9.71875 L 5.578125 -6.171875 Z M 8.421875 -6.171875 "/></g></g></g><g fill="#f6e8ce" fill-opacity="1"><g transform="translate(278.488272, 77.485418)"><g><path d="M 15.796875 -13.5 C 16.347656 -13.5 16.625 -13.328125 16.625 -12.984375 C 16.625 -12.890625 16.617188 -12.820312 16.609375 -12.78125 C 16.566406 -12.644531 16.503906 -12.535156 16.421875 -12.453125 C 16.347656 -12.378906 16.234375 -12.296875 16.078125 -12.203125 C 15.878906 -12.085938 15.710938 -11.953125 15.578125 -11.796875 C 15.441406 -11.648438 15.328125 -11.421875 15.234375 -11.109375 L 12.71875 -2.109375 C 12.488281 -1.296875 12.203125 -0.726562 11.859375 -0.40625 C 11.515625 -0.0820312 11.035156 0.078125 10.421875 0.078125 C 9.878906 0.078125 9.425781 -0.078125 9.0625 -0.390625 C 8.707031 -0.710938 8.378906 -1.203125 8.078125 -1.859375 L 5.015625 -8.3125 L 3.3125 -2.390625 C 3.269531 -2.210938 3.25 -2.054688 3.25 -1.921875 C 3.25 -1.742188 3.273438 -1.597656 3.328125 -1.484375 C 3.390625 -1.367188 3.476562 -1.253906 3.59375 -1.140625 C 3.738281 -0.960938 3.8125 -0.8125 3.8125 -0.6875 C 3.8125 -0.601562 3.804688 -0.539062 3.796875 -0.5 C 3.742188 -0.3125 3.617188 -0.179688 3.421875 -0.109375 C 3.234375 -0.0351562 2.953125 0 2.578125 0 L 0.359375 0 C -0.191406 0 -0.46875 -0.175781 -0.46875 -0.53125 C -0.46875 -0.625 -0.460938 -0.691406 -0.453125 -0.734375 C -0.410156 -0.867188 -0.347656 -0.972656 -0.265625 -1.046875 C -0.179688 -1.117188 -0.0664062 -1.203125 0.078125 -1.296875 C 0.285156 -1.421875 0.457031 -1.554688 0.59375 -1.703125 C 0.726562 -1.847656 0.84375 -2.078125 0.9375 -2.390625 L 3.515625 -11.5 L 3.1875 -12.171875 C 3.050781 -12.441406 2.984375 -12.675781 2.984375 -12.875 C 2.984375 -13.289062 3.253906 -13.5 3.796875 -13.5 L 6.796875 -13.5 C 7.222656 -13.5 7.546875 -13.398438 7.765625 -13.203125 C 7.992188 -13.015625 8.238281 -12.671875 8.5 -12.171875 L 11.453125 -6.21875 L 12.859375 -11.109375 C 12.898438 -11.296875 12.921875 -11.453125 12.921875 -11.578125 C 12.921875 -11.753906 12.890625 -11.898438 12.828125 -12.015625 C 12.765625 -12.128906 12.679688 -12.25 12.578125 -12.375 C 12.421875 -12.550781 12.34375 -12.695312 12.34375 -12.8125 C 12.34375 -12.894531 12.351562 -12.957031 12.375 -13 C 12.425781 -13.1875 12.546875 -13.316406 12.734375 -13.390625 C 12.921875 -13.460938 13.207031 -13.5 13.59375 -13.5 Z M 15.796875 -13.5 "/></g></g></g><g fill="#f6e8ce" fill-opacity="1"><g transform="translate(293.227025, 77.485418)"><g><path d="M 16.25 -13.5 C 16.988281 -13.5 17.359375 -13.195312 17.359375 -12.59375 C 17.359375 -12.40625 17.316406 -12.171875 17.234375 -11.890625 L 16.75 -10.234375 C 16.601562 -9.734375 16.421875 -9.382812 16.203125 -9.1875 C 15.984375 -8.988281 15.671875 -8.890625 15.265625 -8.890625 C 14.929688 -8.890625 14.671875 -8.972656 14.484375 -9.140625 C 14.304688 -9.316406 14.132812 -9.597656 13.96875 -9.984375 L 13.625 -10.8125 C 13.519531 -11.0625 13.40625 -11.234375 13.28125 -11.328125 C 13.164062 -11.429688 12.976562 -11.484375 12.71875 -11.484375 L 12.25 -11.484375 L 9.671875 -2.40625 C 9.628906 -2.238281 9.609375 -2.085938 9.609375 -1.953125 C 9.609375 -1.785156 9.628906 -1.644531 9.671875 -1.53125 C 9.722656 -1.425781 9.796875 -1.316406 9.890625 -1.203125 C 10.015625 -1.003906 10.078125 -0.847656 10.078125 -0.734375 C 10.078125 -0.703125 10.066406 -0.632812 10.046875 -0.53125 C 9.972656 -0.351562 9.835938 -0.222656 9.640625 -0.140625 C 9.441406 -0.0546875 9.160156 -0.015625 8.796875 -0.015625 L 4.03125 -0.015625 C 3.75 -0.015625 3.53125 -0.0625 3.375 -0.15625 C 3.21875 -0.25 3.140625 -0.382812 3.140625 -0.5625 C 3.140625 -0.644531 3.160156 -0.726562 3.203125 -0.8125 C 3.253906 -0.9375 3.316406 -1.023438 3.390625 -1.078125 C 3.472656 -1.140625 3.585938 -1.21875 3.734375 -1.3125 C 3.929688 -1.4375 4.097656 -1.570312 4.234375 -1.71875 C 4.367188 -1.875 4.484375 -2.101562 4.578125 -2.40625 L 7.140625 -11.484375 L 6.671875 -11.484375 C 6.367188 -11.484375 6.125 -11.429688 5.9375 -11.328125 C 5.75 -11.234375 5.546875 -11.0625 5.328125 -10.8125 L 4.671875 -9.984375 C 4.359375 -9.617188 4.054688 -9.34375 3.765625 -9.15625 C 3.472656 -8.976562 3.15625 -8.890625 2.8125 -8.890625 C 2.507812 -8.890625 2.269531 -8.96875 2.09375 -9.125 C 1.914062 -9.289062 1.828125 -9.515625 1.828125 -9.796875 C 1.828125 -9.929688 1.847656 -10.078125 1.890625 -10.234375 L 2.40625 -12.09375 C 2.519531 -12.46875 2.644531 -12.753906 2.78125 -12.953125 C 2.914062 -13.148438 3.109375 -13.289062 3.359375 -13.375 C 3.609375 -13.457031 3.960938 -13.5 4.421875 -13.5 Z M 16.25 -13.5 "/></g></g></g></svg>